
<svg xmlns="http://www.w3.org/2000/svg" version="1.1" xmlns:xlink="http://www.w3.org/1999/xlink" preserveAspectRatio="none" x="0px" y="0px" width="5000px" height="5000px" viewBox="0 0 5000 5000">
<defs>
<g id="Layer7_0_MEMBER_0_MEMBER_0_FILL">
<path fill="#FFFFFF" stroke="none" d="
M 2193.95 2477.4
L 2150.2 2477.4 2150.2 3479.55 2193.95 3479.55 2193.95 2477.4
M 2674.35 1492.55
L 2630.6 1492.55 2630.6 2494.7 2674.35 2494.7 2674.35 1492.55 Z"/>
</g>

<g id="Layer7_0_MEMBER_0_MEMBER_1_FILL">
<path fill="#FFFFFF" stroke="none" d="
M 681.15 3446.65
L 681.15 3490.8 4223.55 3490.8 4223.55 3446.65 681.15 3446.65
M 4223.55 2517.95
L 4223.55 2474 681.15 2474 681.15 2517.95 4223.55 2517.95 Z"/>
</g>

<g id="Layer7_0_MEMBER_0_MEMBER_2_FILL">
<path fill="#FFFFFF" stroke="none" d="
M 4572.55 4234.4
L 4572.55 3370.4 3629.9 3370.4 3629.9 4234.4 4572.55 4234.4
M 4558.7 3383.15
L 4558.7 4221.7 3643.75 4221.7 3643.75 3383.15 4558.7 3383.15 Z"/>
</g>

<g id="Layer7_0_MEMBER_0_MEMBER_3_FILL">
<path fill="#3D6F6C" stroke="none" d="
M 4485.75 3115.95
L 3718.85 3115.95 3598.5 3395.65 4606.1 3395.65 4485.75 3115.95 Z"/>
</g>

<g id="Layer7_0_MEMBER_0_MEMBER_6_FILL">
<path fill="#FFFFFF" stroke="none" d="
M 3437 1510.7
L 3437 1264.7 2434.05 268.05 1435.5 1255 1435.5 1510.7 3437 1510.7 Z"/>
</g>

<g id="Layer7_0_MEMBER_0_MEMBER_7_FILL">
<path fill="#FFFFFF" stroke="none" d="
M 4362.2 1539.75
L 4362.2 1457.35
Q 3623.35 1457.55 2923.65 1457.75 1961.45 1457.95 1073.25 1457.95 802.75 1457.95 539.05 1457.95
L 539.05 1539.75 4362.2 1539.75 Z"/>
</g>

<g id="Layer7_0_MEMBER_0_MEMBER_8_FILL">
<path fill="#FFFFFF" stroke="none" d="
M 1435.5 1255
L 1379 1310.75 1379 1588.1
Q 1407.35 1588.1 1435.5 1588.1
L 1435.5 1553.1 1435.5 1510.7 1435.5 1255
M 3437 1553.1
L 3437 1510.7 1435.5 1510.7 1435.5 1553.1 3437 1553.1
M 3493.5 1320.85
L 3437 1264.7 3437 1510.7 3437 1553.1 3437 1588.5
Q 3465.5 1588.3 3493.5 1588.5
L 3493.5 1320.85 Z"/>
</g>

<g id="Layer7_0_MEMBER_0_MEMBER_9_FILL">
<path fill="#3D6F6C" stroke="none" d="
M 4121.75 3076.1
Q 4109.65 3064.15 4097.6 3052.2 4085.45 3064.15 4073.4 3076.1 3932.55 3215.3 3798.35 3347.85
L 3815.15 3364.65 4097.6 3085.55 4378.9 3365.1 4394.8 3347.45
Q 4258.45 3211.15 4121.75 3076.1 Z"/>
</g>

<g id="Layer7_0_MEMBER_0_MEMBER_10_FILL">
<path fill="#FFFFFF" stroke="none" d="
M 4581.8 4234.4
L 4581.8 4165.1 3618.35 4165.1 3618.35 4234.4 4581.8 4234.4 Z"/>
</g>

<path id="Layer7_0_MEMBER_0_MEMBER_0_1_STROKES" stroke="#000000" stroke-width="7" stroke-linejoin="round" stroke-linecap="round" fill="none" d="
M 2674.35 1492.55
L 2630.6 1492.55 2630.6 2494.7 2674.35 2494.7 2674.35 1492.55 Z
M 2193.95 2477.4
L 2150.2 2477.4 2150.2 3479.55 2193.95 3479.55 2193.95 2477.4 Z"/>

<path id="Layer7_0_MEMBER_0_MEMBER_1_1_STROKES" stroke="#000000" stroke-width="7" stroke-linejoin="round" stroke-linecap="round" fill="none" d="
M 681.15 2474
L 4223.55 2474 4223.55 2517.95 681.15 2517.95 681.15 2474 Z
M 681.15 3446.65
L 4223.55 3446.65 4223.55 3490.8 681.15 3490.8 681.15 3446.65 Z"/>

<path id="Layer7_0_MEMBER_0_MEMBER_2_1_STROKES" stroke="#000000" stroke-width="7" stroke-linejoin="round" stroke-linecap="round" fill="none" d="
M 707.2356773376468 1435.680138397216
L 4188.3484664917 1435.680138397216 4188.3484664917 4626.113636779784 707.2356773376468 4626.113636779784 707.2356773376468 1435.680138397216 Z
M 654.5405441284183 1387.1701782226555
L 4241.043599700928 1387.1701782226555 4241.043599700928 4674.433361816404 654.5405441284183 4674.433361816404 654.5405441284183 1387.1701782226555 Z"/>

<path id="Layer7_0_MEMBER_0_MEMBER_3_1_STROKES" stroke="#000000" stroke-width="7" stroke-linejoin="round" stroke-linecap="round" fill="none" d="
M 992.9688545227054 413.61356124877966
L 3910.7954002380375 413.61356124877966 4368.691377258301 1477.7889228820804 535.0728775024418 1477.7889228820804 992.9688545227054 413.61356124877966 Z"/>

<path id="Layer7_0_MEMBER_0_MEMBER_4_1_STROKES" stroke="#ABEECC" stroke-width="5" stroke-linejoin="round" stroke-linecap="round" fill="none" d="
M 3777.65 413.6
L 3892.7 682.6 4026.65 682.6
M 4228.85 1470.55
L 4116.65 1207.45 4004.6 945.15 3868.75 945.15 3980.8 1207.45 4093.05 1470.55
M 4116.65 1207.45
L 4252.25 1207.45
M 3892.7 682.6
L 4004.6 945.15
M 3370.55 413.6
L 3485.45 682.6 3597.3 945.15 3733.1 945.15 3621.25 682.6 3506.15 413.6
M 3234.7 413.6
L 3349.8 682.6 3485.45 682.6
M 3642 413.6
L 3756.9 682.6 3868.75 945.15
M 3621.25 682.6
L 3756.9 682.6
M 2691.75 413.6
L 2806.65 682.6 2942.5 682.6 2827.6 413.6
M 2963.25 413.6
L 3078.15 682.6 3213.95 682.6 3099.05 413.6
M 2942.5 682.6
L 3054.35 945.15 3190.2 945.15 3078.15 682.6
M 3278.65 1470.55
L 3166.4 1207.45 3030.75 1207.45 3143 1470.55
M 3054.35 945.15
L 3166.4 1207.45
M 2806.65 682.6
L 2918.7 945.15 3030.75 1207.45
M 3213.95 682.6
L 3325.8 945.15 3461.65 945.15 3349.8 682.6
M 3325.8 945.15
L 3437.85 1207.45 3550.1 1470.55
M 3437.85 1207.45
L 3302.25 1207.45 3414.45 1470.55
M 3461.65 945.15
L 3573.7 1207.45 3709.35 1207.45 3597.3 945.15
M 3709.35 1207.45
L 3821.6 1470.55
M 3573.7 1207.45
L 3685.95 1470.55
M 3733.1 945.15
L 3845.15 1207.45 3980.8 1207.45
M 3190.2 945.15
L 3302.25 1207.45
M 3845.15 1207.45
L 3957.4 1470.55
M 2192 413.6
L 2077.3 682.6 1965.25 945.15 2918.7 945.15
M 1513.25 413.6
L 1398.55 682.6 1534.2 682.6 1649.1 413.6
M 1920.55 413.6
L 1805.85 682.6 1693.6 945.15 1829.45 945.15 1941.5 682.6 2056.2 413.6
M 1784.75 413.6
L 1670 682.6 1805.85 682.6
M 1534.2 682.6
L 1422.15 945.15 1557.95 945.15 1670 682.6
M 1693.6 945.15
L 1581.75 1207.45 1469.5 1470.55
M 1581.75 1207.45
L 1446.1 1207.45 1333.7 1470.55
M 1965.25 945.15
L 1853.2 1207.45 1740.95 1470.55
M 1829.45 945.15
L 1717.55 1207.45 1853.2 1207.45
M 1717.55 1207.45
L 1605.15 1470.55
M 1557.95 945.15
L 1446.1 1207.45
M 1422.15 945.15
L 1310.3 1207.45 1198.05 1470.55
M 1941.5 682.6
L 2077.3 682.6
M 1106.15 413.6
L 991.25 682.6 879.2 945.15 1015.05 945.15 1127.1 682.6 1241.8 413.6
M 1127.1 682.6
L 1262.7 682.6 1377.6 413.6
M 877.3 682.6
L 991.25 682.6
M 1262.7 682.6
L 1150.65 945.15 1286.5 945.15 1398.55 682.6
M 651.3 1207.45
L 767.35 1207.45 879.2 945.15
M 926.6 1470.55
L 1038.8 1207.45 903.2 1207.45 790.75 1470.55
M 767.35 1207.45
L 655.1 1470.55
M 1310.3 1207.45
L 1174.65 1207.45 1062.2 1470.55
M 1015.05 945.15
L 903.2 1207.45
M 1286.5 945.15
L 1174.65 1207.45
M 1150.65 945.15
L 1038.8 1207.45"/>

<path id="Layer7_0_MEMBER_0_MEMBER_5_1_STROKES" stroke="#000000" stroke-width="7" stroke-linejoin="round" stroke-linecap="round" fill="none" d="
M 991.0665031433109 411.71120986938513
L 3908.7028137207035 411.71120986938513 4365.837850189209 1475.886571502686 533.931466674805 1475.886571502686 991.0665031433109 411.71120986938513 Z"/>

<path id="Layer7_0_MEMBER_0_MEMBER_7_1_STROKES" stroke="#000000" stroke-width="7" stroke-linejoin="round" stroke-linecap="round" fill="none" d="
M 539.05 1457.95
Q 802.75 1457.95 1073.25 1457.95 1961.45 1457.95 2923.65 1457.75 3623.35 1457.55 4362.2 1457.35
L 4362.2 1539.75 539.05 1539.75 539.05 1457.95 Z"/>

<path id="Layer7_0_MEMBER_0_MEMBER_8_1_STROKES" stroke="#000000" stroke-width="7" stroke-linejoin="round" stroke-linecap="round" fill="none" d="
M 3437 1264.7
L 3493.5 1320.85 3493.5 1588.5
Q 3465.5 1588.3 3437 1588.5
L 3437 1553.1 1435.5 1553.1 1435.5 1588.1
Q 1407.35 1588.1 1379 1588.1
L 1379 1310.75 1435.5 1255 2434.05 268.05 3437 1264.7 3437 1510.7 3437 1553.1
M 1435.5 1553.1
L 1435.5 1510.7 1435.5 1255
M 1435.5 1510.7
L 3437 1510.7"/>

<path id="Layer7_0_MEMBER_0_MEMBER_9_1_STROKES" stroke="#000000" stroke-width="7" stroke-linejoin="round" stroke-linecap="round" fill="none" d="
M 2341.9262176513676 267.44615631103443
Q 2387.7728858947758 221.97995834350513 2434.0000244140647 176.51376037597583 2479.8466926574692 221.97995834350513 2525.8835960388187 267.44615631103443 3045.9864631652836 781.2712638854973 3564.7576843261722 1299.8522499084465
L 3504.262910461426 1367.0052536010735 2434.0000244140647 303.40059738159107 1359.3617301940922 1365.2931373596184 1295.442723846436 1301.3741310119622
Q 1806.033834075928 797.0607803344719 2341.9262176513676 267.44615631103443 Z"/>

<path id="Layer7_0_MEMBER_0_MEMBER_10_1_STROKES" stroke="#000000" stroke-width="7" stroke-linejoin="round" stroke-linecap="round" fill="none" d="
M 610.5962272644047 4410.767460632325
L 4276.237100219727 4410.767460632325 4276.237100219727 4674.433361816404 610.5962272644047 4674.433361816404 610.5962272644047 4410.767460632325 Z"/>
</defs>

<g transform="matrix( 1, 0, 0, 1, 0,0) ">
<use xlink:href="#Layer7_0_MEMBER_0_MEMBER_0_FILL"/>

<use xlink:href="#Layer7_0_MEMBER_0_MEMBER_0_1_STROKES"/>
</g>

<g transform="matrix( 1, 0, 0, 1, 0,0) ">
<use xlink:href="#Layer7_0_MEMBER_0_MEMBER_1_FILL"/>

<use xlink:href="#Layer7_0_MEMBER_0_MEMBER_1_1_STROKES"/>
</g>

<g transform="matrix( 3.8047027587890625, 0, 0, 3.8047027587890625, -13156.15,-11436.2) ">
<use xlink:href="#Layer7_0_MEMBER_0_MEMBER_2_FILL"/>

<use xlink:href="#Layer7_0_MEMBER_0_MEMBER_2_1_STROKES" transform="matrix( 0.2628173828125, 0, 0, 0.2628173828125, 3457.85,3005.8) "/>
</g>

<g transform="matrix( 3.8047027587890625, 0, 0, 3.8047027587890625, -13156.15,-11441.65) ">
<use xlink:href="#Layer7_0_MEMBER_0_MEMBER_3_FILL"/>

<use xlink:href="#Layer7_0_MEMBER_0_MEMBER_3_1_STROKES" transform="matrix( 0.2628173828125, 0, 0, 0.2628173828125, 3457.85,3007.2) "/>
</g>

<g transform="matrix( 1, 0, 0, 1, 0,0) ">
<use xlink:href="#Layer7_0_MEMBER_0_MEMBER_4_1_STROKES"/>
</g>

<g transform="matrix( 3.8047027587890625, 0, 0, 3.8047027587890625, -13156.15,-11441.65) ">
<use xlink:href="#Layer7_0_MEMBER_0_MEMBER_5_1_STROKES" transform="matrix( 0.2628173828125, 0, 0, 0.2628173828125, 3457.85,3007.2) "/>
</g>

<g transform="matrix( 1, 0, 0, 1, 0,0) ">
<use xlink:href="#Layer7_0_MEMBER_0_MEMBER_6_FILL"/>
</g>

<g transform="matrix( 1, 0, 0, 1, 0,0) ">
<use xlink:href="#Layer7_0_MEMBER_0_MEMBER_7_FILL"/>

<use xlink:href="#Layer7_0_MEMBER_0_MEMBER_7_1_STROKES"/>
</g>

<g transform="matrix( 1, 0, 0, 1, 0,0) ">
<use xlink:href="#Layer7_0_MEMBER_0_MEMBER_8_FILL"/>

<use xlink:href="#Layer7_0_MEMBER_0_MEMBER_8_1_STROKES"/>
</g>

<g transform="matrix( 3.8047027587890625, 0, 0, 3.8047027587890625, -13156.15,-11436.2) ">
<use xlink:href="#Layer7_0_MEMBER_0_MEMBER_9_FILL"/>

<use xlink:href="#Layer7_0_MEMBER_0_MEMBER_9_1_STROKES" transform="matrix( 0.2628173828125, 0, 0, 0.2628173828125, 3457.85,3005.8) "/>
</g>

<g transform="matrix( 3.8047027587890625, 0, 0, 3.8047027587890625, -13156.15,-11436.2) ">
<use xlink:href="#Layer7_0_MEMBER_0_MEMBER_10_FILL"/>

<use xlink:href="#Layer7_0_MEMBER_0_MEMBER_10_1_STROKES" transform="matrix( 0.2628173828125, 0, 0, 0.2628173828125, 3457.85,3005.8) "/>
</g>
</svg>
